<svg xmlns="http://www.w3.org/2000/svg" width="1400" height="820" viewBox="0 0 1400 820" role="img" aria-labelledby="title desc">
  <title id="title">Benchmark Snapshot</title>
  <desc id="desc">Real repository measurements</desc>
  <defs>
    <linearGradient id="bg" x1="0%" y1="0%" x2="100%" y2="100%">
      <stop offset="0%" stop-color="#07111f"/>
      <stop offset="55%" stop-color="#0b2840"/>
      <stop offset="100%" stop-color="#0d4d63"/>
    </linearGradient>
    <linearGradient id="bar1" x1="0%" y1="0%" x2="100%" y2="0%">
      <stop offset="0%" stop-color="#53d6ff"/>
      <stop offset="100%" stop-color="#85ffb3"/>
    </linearGradient>
    <linearGradient id="bar2" x1="0%" y1="0%" x2="100%" y2="0%">
      <stop offset="0%" stop-color="#55b8ff"/>
      <stop offset="100%" stop-color="#4fe4e4"/>
    </linearGradient>
    <style>
      .title { font: 700 56px 'Segoe UI', Arial, sans-serif; fill: #f7fbff; }
      .subtitle { font: 500 24px 'Segoe UI', Arial, sans-serif; fill: #a4ebff; }
      .statLabel { font: 600 20px 'Segoe UI', Arial, sans-serif; fill: #9fe7ff; }
      .statValue { font: 700 38px 'Segoe UI', Arial, sans-serif; fill: #f8fcff; }
      .barLabel { font: 700 28px 'Segoe UI', Arial, sans-serif; fill: #f4fbff; }
      .barMeta { font: 500 19px 'Segoe UI', Arial, sans-serif; fill: #cbe2f0; }
      .percent { font: 700 34px 'Segoe UI', Arial, sans-serif; fill: #faffff; }
    </style>
  </defs>

  <rect width="1400" height="820" rx="32" ry="32" fill="url(#bg)"/>

  <text x="70" y="90" class="title">Benchmark Snapshot</text>
  <text x="70" y="126" class="subtitle">Real repository measurements</text>

  <rect x="70" y="170" rx="24" ry="24" width="270" height="120" fill="#11344a"/>
  <rect x="370" y="170" rx="24" ry="24" width="270" height="120" fill="#11344a"/>
  <rect x="670" y="170" rx="24" ry="24" width="270" height="120" fill="#11344a"/>
  <rect x="970" y="170" rx="24" ry="24" width="270" height="120" fill="#11344a"/>

  <text x="95" y="215" class="statLabel">Corpus</text>
  <text x="95" y="255" class="statValue">117 files · 1030 blocks</text>

  <text x="395" y="215" class="statLabel">Full index</text>
  <text x="395" y="255" class="statValue">34.48 s</text>

  <text x="695" y="215" class="statLabel">Avg search</text>
  <text x="695" y="255" class="statValue">252.37 ms</text>

  <text x="995" y="215" class="statLabel">Avg hydrate</text>
  <text x="995" y="255" class="statValue">140.17 ms</text>

  <text x="70" y="380" class="barLabel">Search only</text>
  <text x="70" y="415" class="barMeta">average byte savings</text>
  <rect x="70" y="445" rx="24" ry="24" width="1120" height="56" fill="#123248"/>
  <rect x="70" y="445" rx="24" ry="24" width="835.0" height="56" fill="url(#bar1)"/>
  <text x="1215" y="482" class="percent">78.77%</text>
  <text x="70" y="532" class="barMeta">average word savings: 83.72%</text>

  <text x="70" y="610" class="barLabel">Search + hydrate</text>
  <text x="70" y="645" class="barMeta">average byte savings</text>
  <rect x="70" y="665" rx="24" ry="24" width="1120" height="56" fill="#123248"/>
  <rect x="70" y="665" rx="24" ry="24" width="708.0" height="56" fill="url(#bar2)"/>
  <text x="1215" y="702" class="percent">66.79%</text>
  <text x="70" y="752" class="barMeta">average word savings: 75.28%</text>
</svg>
